<?xml version="1.0" encoding="UTF-8"?>
<svg width="160px" height="160px" viewBox="0 0 160 160" version="1.1" xmlns="http://www.w3.org/2000/svg" xmlns:xlink="http://www.w3.org/1999/xlink">
    <!-- Generator: Sketch 59.1 (86144) - https://sketch.com -->
    <title>Group</title>
    <desc>Created with Sketch.</desc>
    <g id="__vectors" stroke="none" stroke-width="1" fill="none" fill-rule="evenodd">
        <g id="Group">
            <rect id="Rectangle" fill="#FFFFFF" x="0" y="0" width="160" height="160"></rect>
            <g id="camera_placeholder" transform="translate(56.000000, 60.000000)" fill="#6CA4C8" fill-opacity="0.5" fill-rule="nonzero">
                <path d="M44.7414375,7.96522931 L40.3497188,7.96522931 L39.3407813,3.35480705 C38.9099063,1.38534493 37.2158438,0.00983102919 35.2212188,0.00983102919 L19.9746563,0.00983102919 C17.9800313,0.00983102919 16.2859688,1.38525013 15.855,3.35471224 L14.8460625,7.96522931 L13.8039375,7.96522931 L13.8039375,5.99804249 C13.8039375,4.88949717 12.912,3.98753017 11.8156875,3.98753017 L5.3870625,3.98753017 C4.29075,3.98753017 3.3988125,4.88949717 3.3988125,5.99804249 L3.3988125,7.96522931 L3.25846875,7.96522931 C1.46175,7.96522931 0,9.44341614 0,11.2604331 L0,33.5780016 C0,35.3950186 1.46175,36.8732054 3.2585625,36.8732054 L6.59109375,36.8732054 L18.3706875,36.8732054 C21.03075,38.6157063 24.1993125,39.6288786 27.5978438,39.6288786 C30.996375,39.6288786 34.1650313,38.6157063 36.825,36.8732054 L44.7414375,36.8732054 C46.53825,36.8732054 48,35.3950186 48,33.5780016 L48,11.2604331 C48,9.44341614 46.53825,7.96522931 44.7414375,7.96522931 Z M17.6855625,3.76436112 C17.9250938,2.67013123 18.8663438,1.9058199 19.9745625,1.9058199 L35.221125,1.9058199 C36.3293438,1.9058199 37.2705938,2.67003643 37.5100313,3.76436112 L38.4293438,7.96522931 L36.825,7.96522931 C34.1649375,6.22272841 30.996375,5.2095561 27.5978438,5.2095561 C24.1993125,5.2095561 21.03075,6.22272841 18.3706875,7.96522931 L16.76625,7.96522931 L17.6855625,3.76436112 Z M5.2738125,5.99804249 C5.2738125,5.93490291 5.324625,5.88361384 5.3870625,5.88361384 L11.8155937,5.88361384 C11.8780312,5.88361384 11.9288437,5.93499771 11.9288437,5.99804249 L11.9288437,7.96522931 L5.2738125,7.96522931 L5.2738125,5.99804249 Z M7.52859375,34.9771218 L7.52859375,24.6796809 C7.52859375,24.1560774 7.108875,23.7316391 6.59109375,23.7316391 C6.0733125,23.7316391 5.65359375,24.1560774 5.65359375,24.6796809 L5.65359375,34.9771218 L3.2585625,34.9771218 C2.49571875,34.9771218 1.875,34.3494233 1.875,33.5780016 L1.875,11.2604331 C1.875,10.4889167 2.49571875,9.86131298 3.2585625,9.86131298 L4.33640625,9.86131298 L12.8663437,9.86131298 L15.5986875,9.86131298 L15.9744375,9.86131298 C12.6565312,13.0036925 10.5795,17.4704864 10.5795,22.41917 C10.5795,27.3678536 12.6565312,31.8346475 15.9744375,34.9771218 L7.52859375,34.9771218 Z M36.2537812,34.9771218 C35.1362812,35.7672198 33.909,36.4085701 32.5999687,36.8732054 C31.0332187,37.4293268 29.3500312,37.732795 27.5978437,37.732795 C25.8456562,37.732795 24.162375,37.429232 22.5957187,36.8732054 C21.2866875,36.4085701 20.0595,35.7672198 18.9419063,34.9771218 C15.0230625,32.2064695 12.4545,27.6108367 12.4545,22.4192648 C12.4545,17.2276929 15.0230625,12.6320601 18.9419063,9.86140779 C20.0594062,9.07130972 21.2866875,8.42995942 22.5957187,7.96532411 C24.1624687,7.40920277 25.8456562,7.10573458 27.5978437,7.10573458 C29.3500312,7.10573458 31.0333125,7.40929757 32.5999687,7.96532411 C33.909,8.42995942 35.1361875,9.07130972 36.2537812,9.86140779 C40.172625,12.6320601 42.7411875,17.2276929 42.7411875,22.4192648 C42.7411875,27.6108367 40.172625,32.2064695 36.2537812,34.9771218 Z M46.125,33.5779068 C46.125,34.3494233 45.504375,34.977027 44.7414375,34.977027 L39.22125,34.977027 C42.5391563,31.8346475 44.6161875,27.3678536 44.6161875,22.41917 C44.6161875,17.4704864 42.5391563,13.0036925 39.22125,9.86131298 L39.597,9.86131298 L44.7414375,9.86131298 C45.504375,9.86131298 46.125,10.4889167 46.125,11.2604331 L46.125,33.5779068 Z" id="Shape"></path>
                <path d="M27.4285714,10.6764977 C20.7067201,10.6764977 15.2380952,16.1451017 15.2380952,22.8670203 C15.2380952,29.5888461 20.7067201,35.0574501 27.4285714,35.0574501 C28.4079767,35.0574501 29.3828323,34.9408281 30.3260252,34.710834 C30.8242703,34.5892909 31.1295684,34.0869623 31.0081177,33.588812 C30.886667,33.0905688 30.3842436,32.7850861 29.8860914,32.9067221 C29.0867265,33.101711 28.2598774,33.2005054 27.4285714,33.2005054 C21.7306944,33.2005054 17.0951398,28.5649684 17.0951398,22.8671132 C17.0951398,17.1692579 21.7306944,12.533628 27.4285714,12.533628 C33.1264484,12.533628 37.7620031,17.169165 37.7620031,22.8671132 C37.7620031,24.9438382 37.1488069,26.9461889 35.9884326,28.6577275 C35.7006836,29.0821534 35.8115491,29.6595992 36.2359767,29.9473472 C36.6601257,30.2350023 37.2377594,30.1243228 37.5256013,29.6998041 C38.8951716,27.6796258 39.6190476,25.316917 39.6190476,22.867206 C39.6190476,16.1451017 34.1504228,10.6764977 27.4285714,10.6764977 Z" id="Path"></path>
                <path d="M6.47619048,12.962212 C4.58561901,12.962212 3.04761905,14.500304 3.04761905,16.3907834 C3.04761905,18.2812628 4.58571109,19.8193548 6.47619048,19.8193548 C8.36666986,19.8193548 9.9047619,18.2812628 9.9047619,16.3907834 C9.9047619,14.500304 8.36666986,12.962212 6.47619048,12.962212 Z M6.47619048,17.9778616 C5.60116122,17.9778616 4.88920435,17.2659047 4.88920435,16.3908755 C4.88920435,15.5158462 5.60116122,14.8038894 6.47619048,14.8038894 C7.35121973,14.8038894 8.06317661,15.5158462 8.06317661,16.3908755 C8.06317661,17.2659047 7.35131181,17.9778616 6.47619048,17.9778616 Z" id="Shape"></path>
                <path d="M35.0331421,31.8607254 C35.0231607,31.8127374 35.0086838,31.7647494 34.9896352,31.7182849 C34.9705866,31.672582 34.9469664,31.6284026 34.9195365,31.58727 C34.8921827,31.5453757 34.8601049,31.5065283 34.8250555,31.4714894 C34.7900062,31.4364506 34.7504613,31.4044586 34.7092402,31.3762751 C34.6673334,31.3488534 34.6231407,31.3252403 34.5774241,31.3061974 C34.5317075,31.2871546 34.4837813,31.272682 34.435017,31.2627797 C34.3367264,31.2429751 34.235388,31.2429751 34.1370973,31.2627797 C34.0882568,31.272682 34.0402544,31.2871546 33.994614,31.3061974 C33.9488213,31.3252403 33.9047048,31.3488534 33.8627979,31.3762751 C33.821653,31.4044586 33.7827939,31.4364506 33.7469826,31.4714894 C33.7119332,31.5065283 33.6799316,31.5453757 33.6525017,31.58727 C33.6250717,31.6284026 33.6014515,31.672582 33.5824029,31.7182849 C33.5633544,31.7647494 33.5488774,31.8127374 33.5389722,31.8607254 C33.5290669,31.9102369 33.5238095,31.96051 33.5238095,32.0100215 C33.5238095,32.0595329 33.5290669,32.109806 33.5389722,32.1585558 C33.5488774,32.2073055 33.5633544,32.2552935 33.5824029,32.3009963 C33.6014515,32.3474609 33.6250717,32.3916403 33.6525017,32.4327729 C33.6799316,32.4746672 33.7119332,32.5135146 33.7469826,32.5485535 C33.7827939,32.5835924 33.8215768,32.6155844 33.8627979,32.6430061 C33.904781,32.6704278 33.9488974,32.6940409 33.994614,32.7130838 C34.0403306,32.7321266 34.0882568,32.7465992 34.1370973,32.7565015 C34.1865474,32.7664038 34.2361499,32.7717358 34.2856762,32.7717358 C34.3358882,32.7717358 34.3854907,32.7664038 34.435017,32.7565015 C34.4837813,32.7465992 34.5317837,32.7321266 34.5774241,32.7130838 C34.6232169,32.6940409 34.6674096,32.6704278 34.7092402,32.6430061 C34.7503851,32.6155844 34.7900062,32.5835924 34.8250555,32.5485535 C34.9667769,32.4068746 35.047619,32.2103523 35.047619,32.0100215 C35.047619,31.96051 35.0429712,31.9102369 35.0331421,31.8607254 Z" id="Path"></path>
            </g>
        </g>
    </g>
</svg>